<svg xmlns="http://www.w3.org/2000/svg" viewBox="0 0 32 32" width="32" height="32">
  <rect width="32" height="32" rx="7" fill="#d35400"/>
  <g fill="#ffffff">
    <!-- fork -->
    <path d="M10 7v5a2.5 2.5 0 0 0 1.7 2.4V25a0.8 0.8 0 0 0 1.6 0V14.4A2.5 2.5 0 0 0 15 12V7a0.6 0.6 0 0 0-1.2 0v4.2h-0.7V7a0.6 0.6 0 0 0-1.2 0v4.2h-0.7V7A0.6 0.6 0 0 0 10 7z"/>
    <!-- knife -->
    <path d="M21 7c-1.8 1.6-2.6 5.2-2 8.4 0.2 1.1 0.9 1.5 1.2 1.6V25a0.8 0.8 0 0 0 1.6 0V7.5A0.5 0.5 0 0 0 21 7z"/>
  </g>
</svg>
